<svg width="1200" height="630" viewBox="0 0 1200 630" fill="none" xmlns="http://www.w3.org/2000/svg"><defs><radialGradient id="bg" cx="0" cy="0" r="1" gradientTransform="translate(355 245) rotate(26) scale(760 680)"><stop stop-color="#082034"/><stop offset=".46" stop-color="#03090F"/><stop offset="1" stop-color="#020407"/></radialGradient><linearGradient id="line" x1="171" y1="129" x2="463" y2="452" gradientUnits="userSpaceOnUse"><stop stop-color="#F0FDFF"/><stop offset=".34" stop-color="#69E3FF"/><stop offset="1" stop-color="#1379FF"/></linearGradient><radialGradient id="orb" cx="0" cy="0" r="1" gradientTransform="translate(294 254) rotate(48) scale(83)"><stop stop-color="white"/><stop offset=".18" stop-color="#91F3FF"/><stop offset=".5" stop-color="#20B6FF"/><stop offset="1" stop-color="#0A2D6F"/></radialGradient><filter id="g" x="100" y="50" width="480" height="520"><feGaussianBlur stdDeviation="4" result="b"/><feMerge><feMergeNode in="b"/><feMergeNode in="SourceGraphic"/></feMerge></filter></defs><rect width="1200" height="630" fill="url(#bg)"/><g opacity=".12" stroke="#5DDCFF"><path d="M0 105H1200M0 210H1200M0 315H1200M0 420H1200M0 525H1200"/><path d="M150 0V630M300 0V630M450 0V630M600 0V630M750 0V630M900 0V630M1050 0V630"/></g><g transform="translate(160 120) scale(.9)" filter="url(#g)"><path d="M170 0L306 78V234L170 312L34 234V78L170 0Z" stroke="url(#line)" stroke-width="4"/><path d="M170 78C136 78 104 94 76 128C104 168 134 184 170 184C206 184 236 168 264 128C236 94 204 78 170 78Z" fill="#06101A" stroke="url(#line)" stroke-width="5"/><circle cx="170" cy="128" r="38" fill="url(#orb)" stroke="#CFF7FF" stroke-width="4"/><g fill="#ECFCFF"><circle cx="170" cy="0" r="8"/><circle cx="306" cy="78" r="8"/><circle cx="306" cy="234" r="8"/><circle cx="170" cy="312" r="8"/><circle cx="34" cy="234" r="8"/><circle cx="34" cy="78" r="8"/></g></g><text x="540" y="270" fill="#F0F9FC" font-size="104" font-family="Arial, Helvetica, sans-serif" font-weight="700" letter-spacing="13">SYNWYR</text><text x="543" y="319" fill="#52DFFF" font-size="24" font-family="Arial, Helvetica, sans-serif" letter-spacing="13">MCP · BY KODAXA</text><text x="543" y="386" fill="#8CA9B5" font-size="22" font-family="Arial, Helvetica, sans-serif" letter-spacing="5">PERCEPTION · ACTION · PROOF</text></svg>
